<svg id="Layer_1" data-name="Layer 1" xmlns="http://www.w3.org/2000/svg" viewBox="0 0 95 95"><defs><style>.cls-1{fill:#8ad3e5;}.cls-2{fill:#fff;}</style></defs><title>math-icon</title><rect class="cls-1" width="95" height="95" rx="14.93" ry="14.93"/><path class="cls-2" d="M80.47,29.35a2.59,2.59,0,0,1-2.59,2.59H55.09a2.59,2.59,0,0,1-2.59-2.59h0a2.59,2.59,0,0,1,2.59-2.59H77.88a2.59,2.59,0,0,1,2.59,2.59h0ZM77.88,60.46h-8.8v-8.8a2.59,2.59,0,0,0-5.18,0v8.8H55.09a2.59,2.59,0,0,0,0,5.18H63.9v8.8a2.59,2.59,0,0,0,5.18,0v-8.8h8.8A2.59,2.59,0,1,0,77.88,60.46ZM33.24,29.34l6.65-6.65A2.77,2.77,0,0,0,36,18.78l-6.65,6.65-6.65-6.65a2.77,2.77,0,0,0-3.91,3.92l6.65,6.65L18.76,36a2.77,2.77,0,1,0,3.91,3.92l6.65-6.65L36,39.91A2.77,2.77,0,1,0,39.9,36ZM44.12,63.06a2.75,2.75,0,0,0-2.75-2.74H17.27a2.74,2.74,0,0,0-2.74,2.74h0a2.74,2.74,0,0,0,2.74,2.74H41.38a2.74,2.74,0,0,0,2.75-2.74h0ZM32.18,52.4a2.86,2.86,0,1,1-2.86-2.86A2.86,2.86,0,0,1,32.18,52.4Zm0,20.83a2.86,2.86,0,1,1-2.86-2.86A2.86,2.86,0,0,1,32.18,73.23Z"/></svg>